<svg width="32" height="32" viewBox="0 0 32 32" xmlns="http://www.w3.org/2000/svg">
    <path d="M15.0019935,26.5 L15.0019935,18.8695652 C15.0019935,18.3893176 15.4497087,18 16.0019935,18 C16.5542782,18 17.0019935,18.3893176 17.0019935,18.8695652 L17.0019935,26.5 L23.5,26.5 L23.5,18.8695652 C23.5,18.3893176 23.9477153,18 24.5,18 C25.0522847,18 25.5,18.3893176 25.5,18.8695652 L25.5,26.5 L27.0740239,26.5 C27.6263087,26.5 28.0740239,26.9477153 28.0740239,27.5 C28.0740239,28.0522847 27.6263087,28.5 27.0740239,28.5 L4.50199347,28.5 C3.94970872,28.5 3.50199347,28.0522847 3.50199347,27.5 C3.50199347,26.9477153 3.94970872,26.5 4.50199347,26.5 L6.5,26.5 L6.5,18.8695652 C6.5,18.3893176 6.94771525,18 7.5,18 C8.05228475,18 8.5,18.3893176 8.5,18.8695652 L8.5,26.5 L15.0019935,26.5 Z M15.3618091,4.23177872 C15.732655,3.92274043 16.2713319,3.92274043 16.6421779,4.23177872 L28.6421779,14.2317787 C29.3606928,14.8305411 28.9372903,16 28.0019935,16 L4.00199347,16 C3.06669669,16 2.64329418,14.8305411 3.36180907,14.2317787 L15.3618091,4.23177872 Z M6.7640434,14 L25.2399435,14 L16.0019935,6.30170828 L6.7640434,14 Z M16.0019935,13 C14.897424,13 14.0019935,12.1045695 14.0019935,11 C14.0019935,9.8954305 14.897424,9 16.0019935,9 C17.106563,9 18.0019935,9.8954305 18.0019935,11 C18.0019935,12.1045695 17.106563,13 16.0019935,13 Z"/>
</svg>
