<svg width="32" height="32" viewBox="0 0 32 32" xmlns="http://www.w3.org/2000/svg">
    <path d="M17.8697827,15.276451 L13.6734603,11.9193931 L7.79435783,19.6074501 C7.4588724,20.0461618 6.83126161,20.1298433 6.39254989,19.7943578 C5.95383818,19.4588724 5.87015674,18.8312616 6.20564217,18.3925499 L12.7034745,9.89538458 C12.7041938,9.89443782 12.7049151,9.89349196 12.7056384,9.892547 C13.0411276,9.45383818 13.6687384,9.37015674 14.1074501,9.70564217 C14.1142117,9.71081278 14.1208889,9.71605279 14.1274816,9.72136043 L18.3070993,13.0650546 L25.6912639,2.9118283 C26.0161022,2.4651757 26.6415191,2.36642566 27.0881717,2.69126392 C27.5348243,3.01610217 27.6335743,3.64151909 27.3087361,4.0881717 L19.3128956,15.0824523 C19.3026487,15.0967277 19.2919737,15.1108139 19.2808688,15.124695 C18.9358593,15.555957 18.3065669,15.6258784 17.875305,15.2808688 C17.8734497,15.2794116 17.8716129,15.2779339 17.8697827,15.276451 Z M14,0 C14.5522847,0 15,0.44771525 15,1 C15,1.55228475 14.5522847,2 14,2 C7.372583,2 2,7.372583 2,14 C2,20.627417 7.372583,26 14,26 C20.627417,26 26,20.627417 26,14 C26,13.4477153 26.4477153,13 27,13 C27.5522847,13 28,13.4477153 28,14 C28,21.7319865 21.7319865,28 14,28 C6.2680135,28 0,21.7319865 0,14 C0,6.2680135 6.2680135,0 14,0 Z"/>
</svg>
