<svg width="32" height="32" viewBox="0 0 32 32" xmlns="http://www.w3.org/2000/svg">
    <path d="M3.5,16 C3.5,9.09644063 9.09644063,3.5 16,3.5 C22.9035594,3.5 28.5,9.09644063 28.5,16 C28.5,22.9035594 22.9035594,28.5 16,28.5 C9.09644063,28.5 3.5,22.9035594 3.5,16 Z M5.5,16 C5.5,21.7989899 10.2010101,26.5 16,26.5 C21.7989899,26.5 26.5,21.7989899 26.5,16 C26.5,10.2010101 21.7989899,5.5 16,5.5 C10.2010101,5.5 5.5,10.2010101 5.5,16 Z M18.7071068,21.6568542 C19.0976311,22.0473785 19.0976311,22.6805435 18.7071068,23.0710678 C18.3165825,23.4615921 17.6834175,23.4615921 17.2928932,23.0710678 L10.9289322,16.7071068 C10.5384079,16.3165825 10.5384079,15.6834175 10.9289322,15.2928932 L17.2928932,8.92893219 C17.6834175,8.5384079 18.3165825,8.5384079 18.7071068,8.92893219 C19.0976311,9.31945648 19.0976311,9.95262146 18.7071068,10.3431458 L13.0502525,16 L18.7071068,21.6568542 Z"/>
</svg>
