<svg width="32" height="32" viewBox="0 0 32 32" xmlns="http://www.w3.org/2000/svg">
    <path d="M16,28.5 C9.09644063,28.5 3.5,22.9035594 3.5,16 C3.5,9.09644063 9.09644063,3.5 16,3.5 C22.9035594,3.5 28.5,9.09644063 28.5,16 C28.5,22.9035594 22.9035594,28.5 16,28.5 Z M16,26.5 C21.7989899,26.5 26.5,21.7989899 26.5,16 C26.5,10.2010101 21.7989899,5.5 16,5.5 C10.2010101,5.5 5.5,10.2010101 5.5,16 C5.5,21.7989899 10.2010101,26.5 16,26.5 Z M16,18.9497475 L21.6568542,13.2928932 C22.0473785,12.9023689 22.6805435,12.9023689 23.0710678,13.2928932 C23.4615921,13.6834175 23.4615921,14.3165825 23.0710678,14.7071068 L16.7071068,21.0710678 C16.3165825,21.4615921 15.6834175,21.4615921 15.2928932,21.0710678 L8.92893219,14.7071068 C8.5384079,14.3165825 8.5384079,13.6834175 8.92893219,13.2928932 C9.31945648,12.9023689 9.95262146,12.9023689 10.3431458,13.2928932 L16,18.9497475 Z"/>
</svg>
