<svg width="32" height="32" viewBox="0 0 32 32" xmlns="http://www.w3.org/2000/svg">
    <path d="M16,14.5857864 L20.7928932,9.79289322 C21.1834175,9.40236893 21.8165825,9.40236893 22.2071068,9.79289322 C22.5976311,10.1834175 22.5976311,10.8165825 22.2071068,11.2071068 L17.4142136,16 L22.2071068,20.7928932 C22.5976311,21.1834175 22.5976311,21.8165825 22.2071068,22.2071068 C21.8165825,22.5976311 21.1834175,22.5976311 20.7928932,22.2071068 L16,17.4142136 L11.2071068,22.2071068 C10.8165825,22.5976311 10.1834175,22.5976311 9.79289322,22.2071068 C9.40236893,21.8165825 9.40236893,21.1834175 9.79289322,20.7928932 L14.5857864,16 L9.79289322,11.2071068 C9.40236893,10.8165825 9.40236893,10.1834175 9.79289322,9.79289322 C10.1834175,9.40236893 10.8165825,9.40236893 11.2071068,9.79289322 L16,14.5857864 Z"/>
</svg>
