<svg width="32" height="32" viewBox="0 0 32 32" xmlns="http://www.w3.org/2000/svg">
    <path d="M16.1666667,25.3666667 C21.2476864,25.3666667 25.3666667,21.2476864 25.3666667,16.1666667 C25.3666667,11.085647 21.2476864,6.96666667 16.1666667,6.96666667 C11.085647,6.96666667 6.96666667,11.085647 6.96666667,16.1666667 C6.96666667,21.2476864 11.085647,25.3666667 16.1666667,25.3666667 Z M16.1666667,27.6666667 C9.81539204,27.6666667 4.66666667,22.5179413 4.66666667,16.1666667 C4.66666667,9.81539204 9.81539204,4.66666667 16.1666667,4.66666667 C22.5179413,4.66666667 27.6666667,9.81539204 27.6666667,16.1666667 C27.6666667,22.5179413 22.5179413,27.6666667 16.1666667,27.6666667 Z M16.1666667,13.8666667 C16.8017941,13.8666667 17.3166667,14.3815392 17.3166667,15.0166667 L17.3166667,20.7666667 C17.3166667,21.4017941 16.8017941,21.9166667 16.1666667,21.9166667 C15.5315392,21.9166667 15.0166667,21.4017941 15.0166667,20.7666667 L15.0166667,15.0166667 C15.0166667,14.3815392 15.5315392,13.8666667 16.1666667,13.8666667 Z M16.1666667,12.7166667 C15.5315392,12.7166667 15.0166667,12.2017941 15.0166667,11.5666667 C15.0166667,10.9315392 15.5315392,10.4166667 16.1666667,10.4166667 C16.8017941,10.4166667 17.3166667,10.9315392 17.3166667,11.5666667 C17.3166667,12.2017941 16.8017941,12.7166667 16.1666667,12.7166667 Z"/>
</svg>
