<svg width="32" height="32" viewBox="0 0 32 32" xmlns="http://www.w3.org/2000/svg">
    <path d="M18.6568542,11.6568542 L7,11.6568542 C6.44771525,11.6568542 6,11.209139 6,10.6568542 C6,10.1045695 6.44771525,9.65685425 7,9.65685425 L18.6568542,9.65685425 L15.7071068,6.70710678 C15.3165825,6.31658249 15.3165825,5.68341751 15.7071068,5.29289322 C16.0976311,4.90236893 16.7307961,4.90236893 17.1213203,5.29289322 L21.363961,9.53553391 C21.4531919,9.62476476 21.5220344,9.72666332 21.5704886,9.83544069 C21.8300876,10.0160763 22,10.3166227 22,10.6568542 C22,10.9970858 21.8300876,11.2976322 21.5704886,11.4782678 C21.5220344,11.5870452 21.4531919,11.6889437 21.363961,11.7781746 L17.1213203,16.0208153 C16.7307961,16.4113396 16.0976311,16.4113396 15.7071068,16.0208153 C15.3165825,15.630291 15.3165825,14.997126 15.7071068,14.6066017 L18.6568542,11.6568542 Z M2,19 L16,19 C16.5522847,19 17,19.4477153 17,20 C17,20.5522847 16.5522847,21 16,21 L1,21 C0.44771525,21 0,20.5522847 0,20 L0,1 C0,0.44771525 0.44771525,0 1,0 L16,0 C16.5522847,0 17,0.44771525 17,1 C17,1.55228475 16.5522847,2 16,2 L2,2 L2,19 Z"/>
</svg>
