<svg width="32" height="32" viewBox="0 0 32 32" xmlns="http://www.w3.org/2000/svg">
    <path d="M4,9.38130086 L4,24 L28,24 L28,8.97868264 L16.6951996,18.4645364 C16.5519856,18.5847073 16.3849738,18.657876 16.2129163,18.6856831 C15.8525311,18.9281718 15.3615132,18.9147424 15.0121294,18.6215745 L4,9.38130086 Z M5.87288742,8 L15.7821972,16.3148982 L25.6915069,8 L5.87288742,8 Z M4,6 L28,6 C29.1045695,6 30,6.8954305 30,8 L30,24 C30,25.1045695 29.1045695,26 28,26 L4,26 C2.8954305,26 2,25.1045695 2,24 L2,8 C2,6.8954305 2.8954305,6 4,6 Z"/>
</svg>
