<svg width="32" height="32" viewBox="0 0 32 32" xmlns="http://www.w3.org/2000/svg">
    <path d="M8,8 L17.5,8 C18.0522847,8 18.5,8.44771525 18.5,9 C18.5,9.55228475 18.0522847,10 17.5,10 L8,10 C7.44771525,10 7,9.55228475 7,9 C7,8.44771525 7.44771525,8 8,8 Z M8.5,15 L24.5,15 C25.0522847,15 25.5,15.4477153 25.5,16 C25.5,16.5522847 25.0522847,17 24.5,17 L8.5,17 C7.94771525,17 7.5,16.5522847 7.5,16 C7.5,15.4477153 7.94771525,15 8.5,15 Z M16.5,22 L25,22 C25.5522847,22 26,22.4477153 26,23 C26,23.5522847 25.5522847,24 25,24 L16.5,24 C15.9477153,24 15.5,23.5522847 15.5,23 C15.5,22.4477153 15.9477153,22 16.5,22 Z"/>
</svg>
