<svg width="32" height="32" viewBox="0 0 32 32" xmlns="http://www.w3.org/2000/svg">
    <path d="M9,4 L9,29 L24,29 L24,4 L9,4 Z M9,2 L24,2 C25.1045695,2 26,2.8954305 26,4 L26,29 C26,30.1045695 25.1045695,31 24,31 L9,31 C7.8954305,31 7,30.1045695 7,29 L7,4 C7,2.8954305 7.8954305,2 9,2 Z M13,8 L13,21 L20,21 L20,8 L13,8 Z M11,6 L22,6 L22,23 L11,23 L11,6 Z M16.5,27 C15.6715729,27 15,26.3284271 15,25.5 C15,24.6715729 15.6715729,24 16.5,24 C17.3284271,24 18,24.6715729 18,25.5 C18,26.3284271 17.3284271,27 16.5,27 Z"/>
</svg>
