<svg width="32" height="32" viewBox="0 0 32 32" xmlns="http://www.w3.org/2000/svg">
    <path d="M16,29 C8.82029825,29 3,23.1797017 3,16 C3,8.82029825 8.82029825,3 16,3 C23.1797017,3 29,8.82029825 29,16 C29,23.1797017 23.1797017,29 16,29 Z M16,27 C22.0751322,27 27,22.0751322 27,16 C27,9.92486775 22.0751322,5 16,5 C9.92486775,5 5,9.92486775 5,16 C5,22.0751322 9.92486775,27 16,27 Z M13,11 C13,10.1863746 13.9198752,9.7133119 14.5816879,10.1865879 L21.5915513,15.1994868 C22.1493008,15.5983451 22.1493008,16.4274527 21.5915513,16.826311 L14.5816879,21.8392099 C13.9198752,22.3124859 13,21.8394232 13,21.0257978 L13,11 Z M15,19.0812879 L19.2907284,16.0128989 L15,12.9445099 L15,19.0812879 Z"/>
</svg>
